<?xml version="1.0" encoding="utf-8"?>
<!-- Generator: Adobe Illustrator 16.0.0, SVG Export Plug-In . SVG Version: 6.00 Build 0)  -->
<!DOCTYPE svg PUBLIC "-//W3C//DTD SVG 1.1//EN" "http://www.w3.org/Graphics/SVG/1.1/DTD/svg11.dtd">
<svg version="1.1" id="Layer_1" xmlns="http://www.w3.org/2000/svg" xmlns:xlink="http://www.w3.org/1999/xlink" x="0px" y="0px"
	 width="35.018px" height="34.516px" viewBox="0 0 35.018 34.516" enable-background="new 0 0 35.018 34.516" xml:space="preserve">
<circle fill="#1B9EC1" cx="17.658" cy="17.725" r="16.575"/>
<g>
	<path fill-rule="evenodd" clip-rule="evenodd" fill="#FFFFFF" d="M17.508,0.341c-9.578,0-17.345,7.765-17.345,17.345
		c0,7.666,4.97,14.166,11.862,16.46c0.867,0.16,1.185-0.377,1.185-0.836c0-0.412-0.016-1.779-0.023-3.229
		c-4.825,1.049-5.844-2.047-5.844-2.047c-0.789-2.004-1.926-2.537-1.926-2.537c-1.574-1.076,0.119-1.055,0.119-1.055
		c1.741,0.121,2.658,1.787,2.658,1.787c1.547,2.652,4.058,1.887,5.048,1.443c0.155-1.123,8.588-0.74,8.588,0.877
		c0,2.32-0.02,4.189-0.02,4.76c0,0.463,0.311,1.004,1.189,0.834c6.889-2.297,11.854-8.797,11.854-16.458
		C34.854,8.106,27.087,0.341,17.508,0.341z"/>
	<path fill="#FFFFFF" d="M6.733,25.245c-0.039,0.086-0.174,0.111-0.298,0.053c-0.125-0.057-0.196-0.174-0.155-0.262
		c0.037-0.088,0.173-0.111,0.299-0.053C6.704,25.04,6.776,25.159,6.733,25.245L6.733,25.245z M6.519,25.087"/>
	<path fill="#FFFFFF" d="M7.436,26.029c-0.083,0.076-0.245,0.041-0.354-0.08c-0.113-0.121-0.135-0.283-0.051-0.361
		c0.085-0.076,0.242-0.039,0.356,0.08C7.5,25.79,7.522,25.95,7.436,26.029L7.436,26.029z M7.27,25.851"/>
	<path fill="#FFFFFF" d="M8.119,27.027c-0.106,0.074-0.28,0.006-0.388-0.148c-0.106-0.154-0.106-0.34,0.002-0.414
		c0.108-0.074,0.279-0.006,0.388,0.145C8.228,26.767,8.228,26.952,8.119,27.027L8.119,27.027z M8.119,27.027"/>
	<path fill="#FFFFFF" d="M9.056,27.993c-0.095,0.104-0.297,0.076-0.445-0.068c-0.152-0.139-0.194-0.338-0.099-0.443
		c0.097-0.104,0.3-0.074,0.449,0.066C9.112,27.689,9.157,27.888,9.056,27.993L9.056,27.993z M9.056,27.993"/>
	<path fill="#FFFFFF" d="M10.349,28.554c-0.042,0.135-0.237,0.197-0.434,0.139s-0.325-0.219-0.285-0.355
		c0.041-0.137,0.237-0.201,0.434-0.139C10.261,28.257,10.39,28.415,10.349,28.554L10.349,28.554z M10.349,28.554"/>
	<path fill="#FFFFFF" d="M11.769,28.657c0.004,0.143-0.163,0.262-0.369,0.264c-0.207,0.004-0.375-0.111-0.377-0.252
		c0-0.145,0.163-0.262,0.371-0.266C11.599,28.4,11.769,28.515,11.769,28.657L11.769,28.657z M11.769,28.657"/>
	<path fill="#FFFFFF" d="M13.089,28.431c0.025,0.141-0.119,0.283-0.323,0.322c-0.202,0.037-0.388-0.049-0.413-0.188
		c-0.025-0.145,0.12-0.287,0.321-0.324C12.879,28.206,13.063,28.29,13.089,28.431L13.089,28.431z M13.089,28.431"/>
</g>
<g>
	<defs>
		<circle id="SVGID_1_" cx="17.503" cy="17.503" r="17.503"/>
	</defs>
	<clipPath id="SVGID_2_">
		<use xlink:href="#SVGID_1_"  overflow="visible"/>
	</clipPath>
	<polygon clip-path="url(#SVGID_2_)" fill="#C4C4C4" points="-11.688,45.571 -20.889,37.034 8.395,7.749 15.134,22.133 
		13.509,33.383 	"/>
</g>
<path fill="#1B9EC1" d="M21.811,33.526c0-0.57,0.02-2.439,0.02-4.76c0-1.617-0.555-2.674-1.178-3.211
	c3.863-0.43,7.922-1.896,7.922-8.56c0-1.894-0.674-3.44-1.787-4.656c0.182-0.437,0.775-2.201-0.17-4.59c0,0-1.453-0.466-4.764,1.778
	c-1.387-0.385-2.871-0.577-4.346-0.584c-1.475,0.007-2.957,0.199-4.342,0.584C9.852,7.283,8.395,7.749,8.395,7.749
	c-0.941,2.39-0.348,4.153-0.168,4.59c-1.109,1.215-1.787,2.762-1.787,4.656c0,6.647,4.051,8.134,7.903,8.573
	c-0.496,0.434-0.946,1.197-1.101,2.32c-0.99,0.443-3.502,1.209-5.049-1.443c0,0-0.917-1.666-2.658-1.787
	c0,0-1.693-0.021-0.119,1.055c0,0,1.137,0.533,1.926,2.537c0,0,1.02,3.096,5.844,2.047c0.008,1.449,0.023,2.816,0.023,3.229
	c0,0.117-0.021,0.238-0.065,0.352c1.437,0.406,2.946,0.639,4.514,0.639c1.473,0,2.892-0.211,4.251-0.57
	C21.844,33.812,21.811,33.666,21.811,33.526z M6.435,25.514c-0.126-0.057-0.196-0.174-0.155-0.262
	c0.037-0.088,0.173-0.111,0.299-0.053c0.125,0.057,0.197,0.176,0.154,0.262C6.694,25.547,6.559,25.573,6.435,25.514z M7.436,26.244
	c-0.083,0.076-0.246,0.041-0.355-0.08c-0.113-0.121-0.135-0.283-0.051-0.361c0.086-0.076,0.242-0.039,0.356,0.08
	C7.5,26.006,7.522,26.166,7.436,26.244z M8.12,27.242c-0.107,0.074-0.281,0.006-0.389-0.148c-0.105-0.154-0.105-0.34,0.003-0.414
	s0.278-0.006,0.388,0.145C8.227,26.983,8.227,27.168,8.12,27.242z M9.055,28.209c-0.094,0.104-0.297,0.076-0.445-0.068
	c-0.151-0.139-0.193-0.338-0.098-0.443c0.096-0.104,0.3-0.074,0.449,0.066C9.112,27.905,9.157,28.104,9.055,28.209z M10.348,28.77
	c-0.041,0.135-0.236,0.197-0.434,0.139c-0.195-0.059-0.324-0.219-0.284-0.355s0.237-0.201,0.435-0.139
	C10.26,28.473,10.389,28.631,10.348,28.77z M11.4,29.137c-0.207,0.004-0.375-0.111-0.378-0.252c0-0.145,0.164-0.262,0.371-0.266
	c0.206-0.004,0.375,0.111,0.375,0.254C11.773,29.016,11.606,29.135,11.4,29.137z M12.766,28.969
	c-0.202,0.037-0.389-0.049-0.414-0.188c-0.025-0.145,0.121-0.287,0.322-0.324c0.205-0.035,0.389,0.049,0.414,0.189
	S12.97,28.93,12.766,28.969z"/>
</svg>
