<?xml version="1.0" encoding="utf-8"?>
<!-- Generator: Adobe Illustrator 16.0.0, SVG Export Plug-In . SVG Version: 6.00 Build 0)  -->
<!DOCTYPE svg PUBLIC "-//W3C//DTD SVG 1.1//EN" "http://www.w3.org/Graphics/SVG/1.1/DTD/svg11.dtd">
<svg version="1.1" id="Layer_1" xmlns="http://www.w3.org/2000/svg" xmlns:xlink="http://www.w3.org/1999/xlink" x="0px" y="0px"
	 width="35.017px" height="34.516px" viewBox="0 0 35.017 34.516" enable-background="new 0 0 35.017 34.516" xml:space="preserve">
<g>
	<g>
		<path fill="#FFFFFF" d="M17.508,0.133c-9.457,0-17.125,7.668-17.125,17.125c0,9.459,7.668,17.125,17.125,17.125
			c9.458,0,17.125-7.666,17.125-17.125C34.633,7.801,26.966,0.133,17.508,0.133z"/>
	</g>
	<g>
		<defs>
			<path id="SVGID_1_" d="M17.509,34.266c9.393,0,17.008-7.613,17.008-17.008c0-9.393-7.615-17.008-17.008-17.008
				C8.115,0.25,0.5,7.865,0.5,17.258C0.5,26.652,8.115,34.266,17.509,34.266"/>
		</defs>
		<clipPath id="SVGID_2_">
			<use xlink:href="#SVGID_1_"  overflow="visible"/>
		</clipPath>
		<polygon clip-path="url(#SVGID_2_)" fill="#C4C4C4" points="-4.575,47.231 -15.235,36.572 10.628,10.709 17.008,25.384 		"/>
		<polygon clip-path="url(#SVGID_2_)" fill="#C4C4C4" points="-0.201,38.604 -3.667,35.14 22.196,9.276 22.654,12.245 
			25.583,12.831 		"/>
	</g>
	<g>
		<polygon fill="#1B9EC1" points="26.064,12.578 23.736,12.578 23.736,14.904 22.571,14.904 22.571,12.578 20.244,12.578 
			20.244,11.414 22.571,11.414 22.571,9.086 23.736,9.086 23.736,11.414 26.064,11.414 		"/>
		<path fill="#1B9EC1" d="M17.299,18.9c-0.468-0.35-1.486-1.07-1.486-1.553c0-0.566,0.161-0.844,1.014-1.512
			c0.873-0.682,1.49-1.725,1.49-2.84c0-1.217-0.497-2.996-1.432-2.996h1.326l1.127-1c0,0-3.727,0-5.047,0
			c-2.561,0-4.696,1.939-4.696,4.018c0,2.123,1.402,3.842,3.812,3.842c0.167,0,0.331,0.001,0.489-0.009
			c-0.157,0.299-0.268,0.64-0.268,0.991c0,0.59,0.324,0.929,0.726,1.317c-0.303,0-0.596,0.009-0.916,0.009
			c-2.933,0-4.986,2.021-4.986,3.956c0,1.91,2.475,3.103,5.408,3.103c3.343,0,5.399-1.896,5.399-3.805
			C19.259,20.893,18.928,20.125,17.299,18.9z M11.856,13.34c-0.221-1.668,0.633-2.945,1.903-2.908
			c1.271,0.039,2.358,1.408,2.577,3.076c0.219,1.67-0.512,2.744-1.782,2.707C13.283,16.176,12.075,15.01,11.856,13.34z
			 M14.056,24.877c-1.894,0-3.262-1.199-3.262-2.639c0-1.412,1.604-2.629,3.499-2.607c0.441,0.004,0.854,0.074,1.227,0.195
			c1.029,0.715,1.857,1.162,2.066,1.977c0.039,0.164,0.061,0.334,0.061,0.508C17.647,23.752,16.719,24.877,14.056,24.877z"/>
	</g>
</g>
</svg>
