<?xml version="1.0" encoding="utf-8"?>
<!-- Generator: Adobe Illustrator 16.0.0, SVG Export Plug-In . SVG Version: 6.00 Build 0)  -->
<!DOCTYPE svg PUBLIC "-//W3C//DTD SVG 1.1//EN" "http://www.w3.org/Graphics/SVG/1.1/DTD/svg11.dtd">
<svg version="1.1" id="Layer_1" xmlns="http://www.w3.org/2000/svg" xmlns:xlink="http://www.w3.org/1999/xlink" x="0px" y="0px"
	 width="35.017px" height="34.516px" viewBox="0 0 35.017 34.516" enable-background="new 0 0 35.017 34.516" xml:space="preserve">
<g>
	<path fill="#FFFFFF" d="M17.508,34.266c9.396,0,17.009-7.615,17.009-17.008S26.903,0.25,17.508,0.25
		C8.114,0.25,0.5,7.865,0.5,17.258S8.114,34.266,17.508,34.266"/>
	<path fill="#FFFFFF" d="M23.165,13.854"/>
	<g>
		<defs>
			<path id="SVGID_1_" d="M0.5,17.257c0,9.396,7.615,17.01,17.008,17.01s17.008-7.613,17.008-17.01
				c0-9.393-7.615-17.008-17.008-17.008S0.5,7.864,0.5,17.257"/>
		</defs>
		<clipPath id="SVGID_2_">
			<use xlink:href="#SVGID_1_"  overflow="visible"/>
		</clipPath>
		<polygon clip-path="url(#SVGID_2_)" fill="#C4C4C4" points="-13.111,46.799 -18.333,41.578 9.245,14.001 11.215,22.546 		"/>
		<polygon clip-path="url(#SVGID_2_)" fill="#C4C4C4" points="-3.708,50.202 -12.333,41.578 15.245,14.001 26.012,23.899 		"/>
	</g>
	<path fill="#1B9EC1" d="M12.749,24.371H9.433V13.762h3.316V24.371z M11.006,12.436h-0.023c-1.2,0-1.979-0.812-1.979-1.839
		c0-1.048,0.802-1.843,2.025-1.843c1.223,0,1.975,0.793,1.999,1.84C13.028,11.621,12.252,12.436,11.006,12.436z M26.012,24.371
		h-3.759v-5.49c0-1.437-0.587-2.417-1.881-2.417c-0.989,0-1.539,0.661-1.795,1.3c-0.096,0.229-0.081,0.547-0.081,0.867v5.74h-3.724
		c0,0,0.048-9.725,0-10.609h3.724v1.666c0.22-0.729,1.409-1.768,3.31-1.768c2.355,0,4.206,1.526,4.206,4.813V24.371z"/>
</g>
</svg>
