<?xml version="1.0" encoding="utf-8"?>
<!-- Generator: Adobe Illustrator 16.0.0, SVG Export Plug-In . SVG Version: 6.00 Build 0)  -->
<!DOCTYPE svg PUBLIC "-//W3C//DTD SVG 1.1//EN" "http://www.w3.org/Graphics/SVG/1.1/DTD/svg11.dtd">
<svg version="1.1" id="Layer_1" xmlns="http://www.w3.org/2000/svg" xmlns:xlink="http://www.w3.org/1999/xlink" x="0px" y="0px"
	 width="97.572px" height="62px" viewBox="0 0 97.572 62" enable-background="new 0 0 97.572 62" xml:space="preserve">
<path fill="#F35835" d="M87.572,0h-66c-5.522,0-10,4.478-10,10v21l-6,6l6,6.499V52c0,5.522,4.478,10,10,10h66
	c5.522,0,10-4.478,10-10V10C97.572,4.478,93.095,0,87.572,0z"/>
<g>
	<defs>
		<path id="SVGID_1_" d="M87.905,0h-66c-5.522,0-10.333,4.478-10.333,10v21l-6,6l6,6.499V52c0,5.522,4.811,10,10.333,10h66
			c5.522,0,9.667-4.478,9.667-10V10C97.572,4.478,93.428,0,87.905,0z"/>
	</defs>
	<clipPath id="SVGID_2_">
		<use xlink:href="#SVGID_1_"  overflow="visible"/>
	</clipPath>
	<polygon opacity="0.5" clip-path="url(#SVGID_2_)" fill="#C63D26" points="11.533,109.206 -8.882,88.79 68.429,11.479 80.572,31 
		70.072,50.667 	"/>
	<polygon opacity="0.5" clip-path="url(#SVGID_2_)" fill="#C63D26" points="-25.261,101.5 -40.382,88.79 36.929,11.479 34.572,31 
		40.382,35.735 	"/>
</g>
<path fill="#FFFFFF" d="M40.269,22.403c0.195,1.166,0.295,2.029,0.295,2.592c0,1.686-0.606,3.027-1.548,4.024
	s-2.443,1.595-3.443,1.79v0.338c1,0.197,2.502,0.801,3.443,1.813c0.941,1.011,1.48,2.359,1.48,4.045
	c0,0.563-0.066,1.426-0.262,2.592c-0.197,1.166-0.277,2.129-0.277,2.887c0,2.135,0.541,3.203,1.608,3.203
	c1.405,0,2.519,0.168,3.335,0.505l0.423,3.372c-1.237,0.786-3.075,1.181-5.52,1.181c-1.658,0-3.063-0.57-4.214-1.707
	c-1.153-1.139-1.729-2.761-1.729-4.868c0-0.702,0.128-1.819,0.381-3.351c0.252-1.53,0.379-2.634,0.379-3.308
	c0-1.488-0.785-2.605-1.965-3.351c-1.18-0.744-3.084-1.116-5.084-1.116v-4.088c2,0,3.904-0.372,5.084-1.117
	c1.18-0.744,1.867-1.86,1.867-3.351c0-0.674-0.078-1.775-0.33-3.308c-0.253-1.53-0.355-2.647-0.355-3.351
	c0-2.106,0.587-3.729,1.74-4.867c1.151-1.138,2.563-1.707,4.221-1.707c2.444,0,4.286,0.395,5.523,1.18l-0.419,3.372
	c-0.816,0.337-1.925,0.506-3.33,0.506c-1.067,0-1.601,1.068-1.601,3.202C39.973,20.274,40.071,21.237,40.269,22.403z M84.572,33.044
	c-2,0-3.755,0.372-4.935,1.116c-1.18,0.745-1.792,1.862-1.792,3.351c0,0.674,0.115,1.777,0.367,3.308
	c0.253,1.531,0.373,2.648,0.373,3.351c0,2.107-0.579,3.729-1.73,4.868c-1.152,1.137-2.558,1.707-4.215,1.707
	c-2.444,0-4.286-0.395-5.521-1.181l0.42-3.372c0.814-0.337,1.924-0.505,3.33-0.505c1.067,0,1.6-1.068,1.6-3.203
	c0-0.758-0.098-1.721-0.294-2.887c-0.197-1.166-0.295-2.029-0.295-2.592c0-1.686,0.456-3.034,1.397-4.045
	c0.941-1.012,1.295-1.615,3.295-1.813V30.81c-2-0.195-2.354-0.793-3.295-1.79s-1.404-2.339-1.404-4.024
	c0-0.563,0.101-1.426,0.298-2.592c0.196-1.166,0.298-2.129,0.298-2.888c0-2.134-0.533-3.202-1.601-3.202
	c-1.406,0-2.515-0.169-3.329-0.506l-0.421-3.372c1.235-0.785,3.076-1.18,5.521-1.18c1.657,0,3.062,0.569,4.214,1.707
	c1.15,1.138,1.728,2.761,1.728,4.867c0,0.703-0.126,1.82-0.379,3.351c-0.252,1.532-0.379,2.634-0.379,3.308
	c0,1.49,0.636,2.606,1.815,3.351c1.18,0.745,2.935,1.117,4.935,1.117V33.044z"/>
</svg>
