<?xml version="1.0" encoding="utf-8"?>
<!-- Generator: Adobe Illustrator 16.0.0, SVG Export Plug-In . SVG Version: 6.00 Build 0)  -->
<!DOCTYPE svg PUBLIC "-//W3C//DTD SVG 1.1//EN" "http://www.w3.org/Graphics/SVG/1.1/DTD/svg11.dtd">
<svg version="1.1" id="Layer_1" xmlns="http://www.w3.org/2000/svg" xmlns:xlink="http://www.w3.org/1999/xlink" x="0px" y="0px"
	 width="35.017px" height="34.516px" viewBox="0 0 35.017 34.516" enable-background="new 0 0 35.017 34.516" xml:space="preserve">
<g>
	<path fill="#FFFFFF" d="M17.509,34.266c9.393,0,17.008-7.613,17.008-17.008c0-9.393-7.615-17.008-17.008-17.008
		C8.115,0.25,0.5,7.865,0.5,17.258C0.5,26.652,8.115,34.266,17.509,34.266"/>
	<g>
		<defs>
			<path id="SVGID_1_" d="M17.509,34.266c9.393,0,17.008-7.613,17.008-17.008c0-9.393-7.615-17.008-17.008-17.008
				C8.115,0.25,0.5,7.865,0.5,17.258C0.5,26.652,8.115,34.266,17.509,34.266"/>
		</defs>
		<clipPath id="SVGID_2_">
			<use xlink:href="#SVGID_1_"  overflow="visible"/>
		</clipPath>
		
			<rect x="-7.576" y="11.212" transform="matrix(0.7071 0.7071 -0.7071 0.7071 23.1235 9.5997)" clip-path="url(#SVGID_2_)" fill="#C4C4C4" width="15.099" height="43.001"/>
	</g>
	<path fill="#1B9EC1" d="M26.041,12.803c-0.626,0.277-1.3,0.466-2.007,0.551c0.723-0.434,1.276-1.117,1.536-1.934
		c-0.675,0.4-1.423,0.691-2.22,0.848c-0.637-0.68-1.546-1.104-2.551-1.104c-1.93,0-3.495,1.564-3.495,3.494
		c0,0.275,0.03,0.541,0.091,0.797c-2.905-0.146-5.479-1.537-7.205-3.652C9.89,12.32,9.717,12.92,9.717,13.561
		c0,1.212,0.618,2.282,1.556,2.91c-0.573-0.018-1.112-0.177-1.584-0.438v0.043c0,1.695,1.205,3.107,2.805,3.428
		c-0.294,0.082-0.602,0.123-0.922,0.123c-0.225,0-0.444-0.021-0.656-0.063c0.443,1.389,1.734,2.4,3.264,2.427
		c-1.195,0.938-2.703,1.497-4.341,1.497c-0.282,0-0.561-0.016-0.834-0.049c1.548,0.99,3.385,1.57,5.358,1.57
		c6.43,0,9.945-5.326,9.945-9.945c0-0.152-0.004-0.303-0.01-0.452C24.981,14.119,25.574,13.504,26.041,12.803"/>
</g>
</svg>
